PathFileType	4	(X/Y/Z)	C:\Users\Basilio\Documents\Thesis Gigler\squatting_fais\c3dfiles\075\SJ_pre4\markers_experimental.trc
DataRate	CameraRate	NumFrames	NumMarkers	Units	OrigDataRate	OrigDataStartFrame	OrigNumFrames
200.000000	200.000000	4	61	mm	200.000000	1421	1624
Frame#	Time	FHD			LBHD			RBHD			C7			T10			CLAV			LSHO			LUUPA			LMUPA			LDUPA			LLEP			LMEP			LRAD			LUL			LRFIN			RSHO			RUPA1			RMUPA			RDUPA			RLEP			RMEP			RRAD			RUL			RUFIN			LASI			RASI			USACR			LSACR			RSACR			LTHI1			LTHI2			LTHI3			LTHI4			LLFC			LMFC			LTIB1			LTIB2			LTIB3			LTIB4			LLMAL			LMMAL			LHEE			LMT1			LMT2			LMT5			RTHI			RTHI2			RTHI3			RTHI4			RLFC			RMFC			RTIB1			RTIB2			RTIB3			RTIB4			RLMAL			RMMAL			RHEE			RMT1			RMT2			RMT5			
		X1	Y1	Z1	X2	Y2	Z2	X3	Y3	Z3	X4	Y4	Z4	X5	Y5	Z5	X6	Y6	Z6	X7	Y7	Z7	X8	Y8	Z8	X9	Y9	Z9	X10	Y10	Z10	X11	Y11	Z11	X12	Y12	Z12	X13	Y13	Z13	X14	Y14	Z14	X15	Y15	Z15	X16	Y16	Z16	X17	Y17	Z17	X18	Y18	Z18	X19	Y19	Z19	X20	Y20	Z20	X21	Y21	Z21	X22	Y22	Z22	X23	Y23	Z23	X24	Y24	Z24	X25	Y25	Z25	X26	Y26	Z26	X27	Y27	Z27	X28	Y28	Z28	X29	Y29	Z29	X30	Y30	Z30	X31	Y31	Z31	X32	Y32	Z32	X33	Y33	Z33	X34	Y34	Z34	X35	Y35	Z35	X36	Y36	Z36	X37	Y37	Z37	X38	Y38	Z38	X39	Y39	Z39	X40	Y40	Z40	X41	Y41	Z41	X42	Y42	Z42	X43	Y43	Z43	X44	Y44	Z44	X45	Y45	Z45	X46	Y46	Z46	X47	Y47	Z47	X48	Y48	Z48	X49	Y49	Z49	X50	Y50	Z50	X51	Y51	Z51	X52	Y52	Z52	X53	Y53	Z53	X54	Y54	Z54	X55	Y55	Z55	X56	Y56	Z56	X57	Y57	Z57	X58	Y58	Z58	X59	Y59	Z59	X60	Y60	Z60	X61	Y61	Z61	

1422	7.105	-211.9856872558594	1698.055053710938	-883.1511230468752	-351.5191650390626	1567.572265625	-944.4997558593752	-296.3972167968751	1592.9619140625	-792.256042480469	-382.6521911621094	1459.43115234375	-901.317077636719	-417.8877563476564	1135.426635742188	-905.2449340820315	-243.884994506836	1389.419311523438	-897.7864990234377	-271.3332214355469	1429.740478515625	-1057.836547851563	-315.4339599609376	1278.390747070313	-1222.178344726563	-283.3519592285157	1240.806640625	-1210.121948242188	-312.9770812988282	1218.379272460938	-1258.681518554688	-310.2841186523438	1134.559814453125	-1284.281372070313	-391.834197998047	1128.036865234375	-1240.1953125	-303.1595458984376	945.7077636718752	-1121.629272460938	-257.8448181152344	910.5510253906252	-1171.082397460938	-259.7295837402344	933.5479736328127	-1075.44482421875	-284.6138305664063	1423.80224609375	-736.8840942382814	-347.3570556640626	1276.073974609375	-581.6967163085939	-319.8118591308594	1234.439819335938	-586.3876953125001	-358.9143371582032	1217.036865234375	-543.6031494140626	-363.0418701171876	1148.068237304688	-519.0128784179689	-437.2448120117189	1124.84326171875	-553.1536254882814	-278.1076660156251	926.667663574219	-629.1712036132814	-321.0195007324219	951.2634887695315	-688.3842163085939	-258.7439880371094	948.129577636719	-724.2052612304689	-261.3680725097657	941.6337890625002	-1025.869750976563	-261.6117858886719	955.091735839844	-778.904235839844	-416.4134521484376	1036.136108398438	-907.403991699219	-424.8278808593751	1004.641296386719	-934.348083496094	-423.543426513672	1006.603698730469	-877.1638793945315	-315.5613708496094	716.4667968750001	-1111.20947265625	-281.8112792968751	639.6820068359376	-1115.512084960938	-234.7754211425782	646.0666503906251	-1099.309814453125	-305.8621215820313	584.7572631835939	-1107.371826171875	-304.3150939941407	477.5098266601564	-1101.491821289063	-259.8115539550782	461.837615966797	-985.5946044921877	-259.1430969238282	349.6826477050782	-1077.458374023438	-323.8852539062501	317.4062194824219	-1125.38525390625	-281.7142944335938	306.3883361816407	-1107.2255859375	-293.9450683593751	226.438217163086	-1081.090209960938	-386.981414794922	94.32757568359376	-1099.011108398438	-348.4148864746094	99.83563995361331	-1020.395690917969	-435.2294006347657	49.89730453491212	-1051.677368164063	-223.2252807617188	51.44780349731447	-1060.904174804688	-229.0803833007813	57.44941711425783	-1109.417114257813	-273.8964233398438	42.26154708862305	-1157.191040039063	-332.3257446289063	772.010437011719	-696.2160644531251	-292.2457885742188	720.2581787109376	-690.3556518554689	-260.7184753417969	725.5770263671876	-700.3943481445314	-317.8409118652344	637.8784790039064	-691.6107177734376	-323.5042724609376	484.7676391601564	-708.1672363281251	-282.0978393554688	463.2850036621095	-826.0710449218752	-282.4026489257813	329.1560974121094	-753.3768310546876	-342.9958801269532	261.8711242675782	-691.6311645507814	-305.2660522460938	250.9211730957032	-720.1376342773439	-317.1868591308594	203.9940795898438	-752.8577270507814	-399.7916870117189	91.10252380371095	-710.6978149414064	-360.2614135742188	106.1468658447266	-790.4383544921877	-442.824188232422	49.4160499572754	-770.6262207031252	-234.9849090576172	57.54855346679689	-736.3500366210939	-245.0426483154297	56.84315490722658	-696.1256713867189	-287.1943359375001	34.98269271850587	-648.9396972656251	
1423	7.11	-211.9659881591797	1698.202270507813	-883.7541503906252	-351.2906188964844	1567.486083984375	-945.5080566406252	-296.0247802734376	1593.410766601563	-793.5095214843752	-382.6108093261719	1459.383178710938	-902.6790161132815	-417.5984497070314	1135.364624023438	-906.4038696289065	-243.1353149414063	1389.494384765625	-898.7063598632815	-270.5676879882813	1429.673706054688	-1058.729370117188	-315.1307678222657	1278.427612304688	-1223.249877929688	-283.1373901367188	1240.945434570313	-1211.46630859375	-312.7356872558594	1218.5146484375	-1259.8994140625	-309.8166503906251	1134.740478515625	-1285.427856445313	-391.6401367187501	1128.102416992188	-1241.400024414063	-302.6355590820313	945.812194824219	-1122.860961914063	-257.6980590820313	910.7214965820315	-1172.341186523438	-259.5582275390626	933.6929321289065	-1076.731323242188	-284.3962402343751	1423.80126953125	-738.3444213867189	-347.4175109863282	1276.112548828125	-582.9495849609376	-319.7929992675782	1234.57373046875	-587.5769653320314	-358.8659667968751	1217.078979492188	-544.9012451171876	-362.9707946777344	1148.142700195313	-520.3167724609376	-437.2127685546876	1124.818725585938	-554.7075195312501	-277.8101806640626	926.7838134765627	-630.3017578125001	-321.1011657714844	950.895690917969	-689.5335693359376	-258.4561157226563	948.149353027344	-725.3568725585939	-261.0083007812501	941.8681640625002	-1027.055297851563	-261.2207031250001	955.259216308594	-779.8889160156252	-416.046844482422	1036.191528320313	-908.584899902344	-424.4903564453126	1004.719665527344	-935.426940917969	-423.2460021972657	1006.825805664063	-878.3491821289065	-315.4745788574219	716.3535156250001	-1112.003295898438	-281.7159423828126	639.5352172851564	-1116.417114257813	-234.7280273437501	646.0872802734376	-1100.373657226563	-305.8479919433594	584.7111816406251	-1108.036499023438	-304.4315185546876	477.4340209960939	-1101.963500976563	-259.7635192871094	462.0176086425782	-986.0562133789065	-259.1480102539063	349.7301635742188	-1077.802734375	-323.9171447753907	317.1252746582032	-1125.679077148438	-281.8318176269532	306.2746887207032	-1107.531494140625	-293.9128417968751	226.3054504394532	-1081.263793945313	-386.9873657226564	94.28744506835939	-1098.955444335938	-348.3517761230469	99.75965881347659	-1020.436889648438	-435.1608886718751	49.89017486572267	-1051.73974609375	-223.1146850585938	51.37099838256837	-1061.005615234375	-229.0700378417969	57.28987503051759	-1109.536010742188	-273.9385681152344	42.21298599243165	-1157.308227539063	-332.1792907714844	772.0305175781252	-697.2463989257814	-292.0927124023438	720.3385009765626	-691.2305297851564	-260.6099853515626	725.5795898437501	-701.3161621093751	-317.6300659179688	638.1399536132814	-692.5116577148439	-323.4588012695313	485.0135498046876	-708.7999877929689	-282.1459045410157	463.2691345214845	-826.7883911132815	-282.4737548828126	329.3344726562501	-753.7650756835939	-343.0925598144532	262.1141357421876	-691.9595947265626	-305.0883178710938	250.9871063232422	-720.3981933593751	-317.0144348144532	204.2070312500001	-753.0625000000001	-399.7877197265626	91.21240997314455	-710.8710937500001	-360.2213134765626	106.0593872070313	-790.5056152343752	-442.8982238769532	49.54531097412111	-770.6905517578127	-234.9900207519532	57.58422470092775	-736.4301757812501	-245.0037994384766	56.8417091369629	-696.2269287109376	-287.2458801269532	34.99219512939454	-648.9873046875001	
1424	7.115	-211.9320373535157	1698.4208984375	-884.4068603515627	-351.1455993652344	1567.545776367188	-946.4819946289065	-295.8222045898438	1593.090942382813	-794.6032714843752	-382.3873596191407	1459.5185546875	-903.9306640625002	-417.4041748046876	1135.471313476563	-907.4426269531252	-242.9360961914063	1389.573852539063	-899.722839355469	-270.3536071777344	1429.73046875	-1059.95947265625	-314.6037902832032	1278.435302734375	-1224.55859375	-282.7458496093751	1240.94921875	-1212.684692382813	-312.3858032226563	1218.619873046875	-1261.146484375	-309.2829284667969	1134.754516601563	-1286.693115234375	-391.398895263672	1128.14013671875	-1242.842529296875	-302.3521118164063	945.9072265625002	-1124.0576171875	-257.3296203613282	910.7185058593752	-1173.516967773438	-259.3278198242188	933.7941894531252	-1077.902709960938	-284.3073730468751	1424.039184570313	-739.2161254882814	-347.4956054687501	1276.115112304688	-584.2125244140626	-319.8318786621094	1234.598876953125	-588.7245483398439	-358.9635925292969	1217.143310546875	-546.2443847656251	-363.1236267089844	1148.236450195313	-521.6569824218751	-437.1252746582032	1124.79833984375	-556.1169433593751	-277.4490966796876	926.9239501953127	-631.5711669921876	-320.5422363281251	951.3802490234377	-690.8189697265626	-258.5526123046876	948.3347778320315	-726.7655029296876	-260.9068908691407	941.8438110351565	-1028.255737304688	-260.8172302246094	955.4449462890627	-781.1641235351565	-415.6705932617189	1036.250244140625	-909.7451782226565	-424.1950683593751	1004.837219238281	-936.5511474609377	-423.0125122070314	1006.893859863281	-879.5056762695315	-315.4387207031251	716.3356323242189	-1112.818359375	-281.0864868164063	639.3040161132814	-1116.98583984375	-234.7519989013672	645.8995971679689	-1101.332153320313	-305.9007873535157	584.6557006835939	-1108.658081054688	-304.4937133789063	477.3681640625001	-1102.43896484375	-259.9820861816407	462.1165771484376	-986.6478271484377	-259.2947692871094	349.7383117675782	-1078.143310546875	-323.9787902832032	316.9975280761719	-1125.975952148438	-281.9079895019532	306.1757812500001	-1107.915893554688	-293.7050170898438	226.2508392333985	-1081.480224609375	-386.7365112304689	94.13414001464845	-1098.947875976563	-348.2613525390626	99.70330047607425	-1020.552124023438	-435.1679687500001	49.92221450805665	-1051.775024414063	-223.1047821044922	51.33126068115236	-1061.131591796875	-229.0487518310547	57.12279891967775	-1109.638793945313	-273.9343566894532	42.10643005371094	-1157.403930664063	-331.8923034667969	772.2058715820315	-698.2127075195314	-291.8859252929688	720.4841918945314	-692.1905517578126	-260.4819946289063	725.6650390625001	-702.3928222656251	-317.6034545898438	638.2941284179689	-693.3493652343751	-323.4998779296876	485.1541442871095	-709.5909423828126	-282.0719299316407	463.3575744628907	-827.6518554687502	-282.4824829101563	329.4793090820313	-754.1913452148439	-343.2114257812501	262.2891235351563	-692.4354858398439	-305.8587646484376	251.3793945312501	-721.1674194335939	-317.0558776855469	204.4207000732422	-753.4095458984376	-399.7475891113282	91.34069061279298	-710.9714965820314	-360.0587768554688	106.2758178710938	-790.6394042968752	-442.7999877929689	49.49648284912111	-770.748474121094	-234.9404602050782	57.5780601501465	-736.4695434570314	-245.0064849853516	56.85655975341798	-696.2195434570314	-287.1790161132813	35.10052108764649	-649.0527954101564	
1425	7.12	-211.9488067626954	1698.486328125	-885.0728149414065	-350.9052429199219	1567.680908203125	-947.3956298828127	-295.6500854492188	1592.80322265625	-795.7382812500002	-382.0417785644532	1459.613647460938	-905.0903320312502	-416.9977416992189	1135.530151367188	-908.5715942382815	-242.7167205810547	1389.624267578125	-900.9245605468752	-270.0820922851563	1429.785034179688	-1061.0859375	-314.2760925292969	1278.58251953125	-1225.693969726563	-282.4277648925782	1241.03955078125	-1213.906005859375	-312.0012207031251	1218.719970703125	-1262.453125	-309.0741271972657	1134.736694335938	-1287.915771484375	-391.1510314941407	1128.33740234375	-1244.139038085938	-302.0674438476563	946.1629028320315	-1125.344848632813	-257.1348571777344	910.7949218750002	-1174.818603515625	-258.9184875488282	933.7935791015627	-1079.077026367188	-284.1440124511719	1423.949340820313	-740.6395263671876	-347.5025634765626	1276.1982421875	-585.5917968750001	-319.8118896484376	1234.698120117188	-589.9385375976564	-359.1585998535157	1217.111694335938	-547.5709228515626	-363.1362609863282	1148.316162109375	-522.9151611328126	-437.1992187500001	1124.704223632813	-557.6226196289064	-277.3024902343751	927.0040283203127	-632.7625122070314	-320.2066650390626	951.3110351562502	-692.0516357421876	-257.9908447265626	948.3469848632815	-727.8038330078126	-260.6148986816407	941.8801879882815	-1029.47412109375	-260.4392089843751	955.4558715820315	-782.3281860351565	-415.4886779785157	1036.253295898438	-910.8378906250002	-423.9076232910157	1004.879577636719	-937.754333496094	-422.6970214843751	1007.023559570313	-880.5919189453127	-315.5588073730469	716.4023437500001	-1113.756713867188	-281.2988586425782	639.2950439453126	-1117.68994140625	-234.8269500732422	645.8191528320314	-1102.047119140625	-306.3337707519532	584.7577514648439	-1109.13134765625	-304.5176086425782	477.3453979492189	-1102.871215820313	-260.0249633789063	462.280975341797	-987.104675292969	-259.3940734863282	349.8197631835938	-1078.498168945313	-323.4003906250001	316.6863403320313	-1126.012817382813	-282.5664672851563	306.1506652832032	-1108.609741210938	-293.7264709472657	226.2464447021485	-1081.759155273438	-386.7609863281251	94.0636444091797	-1098.955200195313	-348.1392822265626	99.65773773193362	-1020.606567382813	-435.1108398437501	50.0117874145508	-1051.7470703125	-222.9836578369141	51.28794479370119	-1061.25732421875	-229.0521240234376	57.0390090942383	-1109.696899414063	-273.8765869140626	42.01908874511719	-1157.476806640625	-331.6741027832032	772.3286743164065	-699.1453857421876	-291.7823791503907	720.5924682617189	-693.2343139648439	-260.3341674804688	725.7266235351564	-703.4906005859376	-317.5480651855469	638.4674072265626	-694.1124877929689	-323.6080932617188	485.3420715332032	-710.3280029296876	-282.1096496582032	463.3308715820314	-828.1484375000002	-282.4206848144532	329.5652770996094	-754.7106323242189	-343.2998962402344	262.5396423339844	-692.8348999023439	-305.9046630859376	251.5246276855469	-721.4660644531251	-317.1774902343751	204.4364624023438	-753.8494262695314	-399.7354431152345	91.5508499145508	-711.1424560546876	-359.9465332031251	106.3113021850586	-790.7553710937502	-442.872283935547	49.58356094360353	-770.8081665039065	-234.9931182861329	57.56239700317384	-736.5968627929689	-244.9682159423829	56.95191955566408	-696.2673950195314	-287.1824035644532	35.1651840209961	-649.1130371093751	
